{
  "asset": {
    "version": "2.0",
    "generator": "THREE.GLTFExporter"
  },
  "scenes": [
    {
      "nodes": [
        0
      ]
    }
  ],
  "scene": 0,
  "nodes": [
    {
      "children": [
        9
      ],
      "matrix": [
        0.01,
        0,
        0,
        0,
        0,
        0.01,
        0,
        0,
        0,
        0,
        0.01,
        0,
        0,
        0,
        0,
        1
      ]
    },
    {
      "matrix": [
        -0.04148007487715042,
        0.000005548392240754815,
        -0.9991393313033975,
        0,
        -0.07526516970456072,
        0.9971586412800661,
        0.0031302315946012747,
        0,
        2.7199001886958443,
        0.20565153764604124,
        -0.11291770718595072,
        0,
        1938.350000000006,
        -554.5299999999994,
        517.4599999999956,
        1
      ],
      "name": "view",
      "camera": 0
    },
    {
      "matrix": [
        2.220446049250313e-16,
        0,
        -1,
        0,
        0,
        1,
        0,
        0,
        1,
        0,
        2.220446049250313e-16,
        0,
        -150.01046727302887,
        9.159248431612014,
        0,
        1
      ],
      "name": "copy",
      "mesh": 0
    },
    {
      "matrix": [
        0.8947261485258282,
        0,
        0,
        0,
        0,
        0.7246357257275369,
        0,
        0,
        0,
        0,
        0.8947261485258282,
        0,
        0,
        306.3735586739549,
        0,
        1
      ],
      "name": "cap",
      "mesh": 1
    },
    {
      "matrix": [
        1,
        0,
        0,
        0,
        0,
        1,
        0,
        0,
        0,
        0,
        1,
        0,
        0,
        -141.82115168134806,
        0,
        1
      ],
      "name": "body",
      "mesh": 2
    },
    {
      "matrix": [
        1,
        0,
        0,
        0,
        0,
        0.93093138859468,
        -0.365194126088004,
        0,
        0,
        0.365194126088004,
        0.93093138859468,
        0,
        25.01046727302903,
        1.8094188194924048,
        20.664553571860093,
        1
      ],
      "name": "bottle",
      "children": [
        3,
        4
      ]
    },
    {
      "matrix": [
        1,
        0,
        0,
        0,
        0,
        1,
        0,
        0,
        0,
        0,
        1,
        0,
        72,
        -650,
        583,
        1
      ],
      "name": "scene",
      "children": [
        2,
        5
      ]
    },
    {
      "matrix": [
        -0.04150135082169457,
        -1.4858782093618564e-8,
        -0.9991384478038933,
        0,
        -0.07530041677254178,
        0.9971559880081954,
        0.0031277489159209078,
        0,
        2.7207213990917363,
        0.20581025207241183,
        -0.11301098118891503,
        0,
        1944.9490184932429,
        -585.6399059606832,
        619.7844021999305,
        1
      ],
      "name": "Personal Camera",
      "camera": 1
    },
    {
      "matrix": [
        1,
        0,
        0,
        0,
        0,
        1,
        0,
        0,
        0,
        0,
        1,
        0,
        0,
        1,
        0,
        1
      ],
      "name": "Default Ambient Light"
    },
    {
      "name": "Scene 1",
      "children": [
        1,
        6,
        7,
        8
      ]
    }
  ],
  "cameras": [
    {
      "type": "perspective",
      "perspective": {
        "aspectRatio": 1.802325581395349,
        "yfov": 0.7853981633974483,
        "zfar": 100000,
        "znear": 70
      },
      "name": "Camera"
    },
    {
      "type": "perspective",
      "perspective": {
        "aspectRatio": 1.802325581395349,
        "yfov": 0.7853981633974483,
        "zfar": 100000,
        "znear": 70
      },
      "name": "Camera"
    }
  ],
  "bufferViews": [
    {
      "buffer": 0,
      "byteOffset": 0,
      "byteLength": 4236,
      "target": 34962,
      "byteStride": 12
    },
    {
      "buffer": 0,
      "byteOffset": 4236,
      "byteLength": 4236,
      "target": 34962,
      "byteStride": 12
    },
    {
      "buffer": 0,
      "byteOffset": 8472,
      "byteLength": 2824,
      "target": 34962,
      "byteStride": 8
    },
    {
      "buffer": 0,
      "byteOffset": 11296,
      "byteLength": 2072,
      "target": 34963
    },
    {
      "buffer": 0,
      "byteOffset": 13368,
      "byteLength": 26112,
      "target": 34962,
      "byteStride": 12
    },
    {
      "buffer": 0,
      "byteOffset": 39480,
      "byteLength": 26112,
      "target": 34962,
      "byteStride": 12
    },
    {
      "buffer": 0,
      "byteOffset": 65592,
      "byteLength": 13056,
      "target": 34963
    },
    {
      "buffer": 0,
      "byteOffset": 78648,
      "byteLength": 29184,
      "target": 34962,
      "byteStride": 12
    },
    {
      "buffer": 0,
      "byteOffset": 107832,
      "byteLength": 29184,
      "target": 34962,
      "byteStride": 12
    },
    {
      "buffer": 0,
      "byteOffset": 137016,
      "byteLength": 14592,
      "target": 34963
    }
  ],
  "buffers": [
    {
      "byteLength": 151608,
      "uri": "data:application/octet-stream;base64,"
    }
  ],
  "accessors": [
    {
      "bufferView": 0,
      "componentType": 5126,
      "count": 353,
      "max": [
        770.27490234375,
        170.98019409179688,
        0
      ],
      "min": [
        -844.3251342773438,
        -144.01980590820312,
        0
      ],
      "type": "VEC3"
    },
    {
      "bufferView": 1,
      "componentType": 5126,
      "count": 353,
      "max": [
        0,
        0,
        1
      ],
      "min": [
        0,
        0,
        1
      ],
      "type": "VEC3"
    },
    {
      "bufferView": 2,
      "componentType": 5126,
      "count": 353,
      "max": [
        1,
        1
      ],
      "min": [
        0,
        0
      ],
      "type": "VEC2"
    },
    {
      "bufferView": 3,
      "componentType": 5123,
      "count": 1035,
      "max": [
        352
      ],
      "min": [
        0
      ],
      "type": "SCALAR"
    },
    {
      "bufferView": 4,
      "componentType": 5126,
      "count": 2176,
      "max": [
        81.77290344238281,
        122.39257049560547,
        81.77291107177734
      ],
      "min": [
        -81.77290344238281,
        -76.18163299560547,
        -81.77290344238281
      ],
      "type": "VEC3"
    },
    {
      "bufferView": 5,
      "componentType": 5126,
      "count": 2176,
      "max": [
        0.9999998807907104,
        1,
        0.9999998807907104
      ],
      "min": [
        -0.9999998807907104,
        -1,
        -0.9999998807907104
      ],
      "type": "VEC3"
    },
    {
      "bufferView": 6,
      "componentType": 5125,
      "count": 3264,
      "max": [
        2175
      ],
      "min": [
        0
      ],
      "type": "SCALAR"
    },
    {
      "bufferView": 7,
      "componentType": 5126,
      "count": 2432,
      "max": [
        122.62123107910156,
        444.82122802734375,
        122.62123107910156
      ],
      "min": [
        -122.62123107910156,
        -255.1608428955078,
        -122.62123107910156
      ],
      "type": "VEC3"
    },
    {
      "bufferView": 8,
      "componentType": 5126,
      "count": 2432,
      "max": [
        0.9999820590019226,
        1,
        0.9999820590019226
      ],
      "min": [
        -0.9999820590019226,
        -1,
        -0.9999820590019226
      ],
      "type": "VEC3"
    },
    {
      "bufferView": 9,
      "componentType": 5125,
      "count": 3648,
      "max": [
        2431
      ],
      "min": [
        0
      ],
      "type": "SCALAR"
    }
  ],
  "meshes": [
    {
      "primitives": [
        {
          "mode": 4,
          "attributes": {
            "POSITION": 0,
            "NORMAL": 1,
            "TEXCOORD_0": 2
          },
          "extras": {
            "parameters": {
              "type": "TextGeometry",
              "width": 1725.550248282473,
              "height": 521.9603936709719,
              "depth": 0,
              "horizontalAlign": 1,
              "verticalAlign": 1,
              "fontSize": 450,
              "lineHeight": 1.2,
              "letterSpacing": 0.15,
              "text": {
                "textValue": "HYDRATE"
              },
              "textTransform": 1,
              "font": "Bebas Neue_regular",
              "editable": false,
              "extrudeBevelSize": 0,
              "extrudeBevelSegments": 1
            },
            "type": "TextGeometry"
          },
          "indices": 3
        }
      ]
    },
    {
      "primitives": [
        {
          "mode": 4,
          "attributes": {
            "POSITION": 4,
            "NORMAL": 5
          },
          "extras": {
            "type": "SubdivGeometry",
            "parameters": {
              "width": 166.71849060058594,
              "height": 199.25582885742188,
              "depth": 166.71849060058594
            }
          },
          "indices": 6
        }
      ]
    },
    {
      "primitives": [
        {
          "mode": 4,
          "attributes": {
            "POSITION": 7,
            "NORMAL": 8
          },
          "extras": {
            "type": "SubdivGeometry",
            "parameters": {
              "width": 250,
              "height": 704.6601867675781,
              "depth": 250
            }
          },
          "indices": 9
        }
      ]
    }
  ]
}